<?xml version="1.0" standalone="no"?>
<!DOCTYPE svg PUBLIC "-//W3C//DTD SVG 20010904//EN"
 "http://www.w3.org/TR/2001/REC-SVG-20010904/DTD/svg10.dtd">
<svg version="1.0" xmlns="http://www.w3.org/2000/svg"
 width="616.000000pt" height="616.000000pt" viewBox="0 0 616.000000 616.000000"
 preserveAspectRatio="xMidYMid meet">
<metadata>
Created by potrace 1.14, written by Peter Selinger 2001-2017
</metadata>
<g transform="translate(0.000000,616.000000) scale(0.100000,-0.100000)"
fill="#000000" stroke="none">
<path d="M1995 6050 c-88 -38 -173 -76 -190 -84 -16 -8 -52 -24 -80 -36 -51
-22 -73 -31 -157 -69 -27 -12 -69 -30 -95 -41 -27 -12 -60 -27 -74 -35 -14 -8
-29 -12 -33 -8 -3 3 -6 1 -6 -5 0 -7 -6 -12 -13 -12 -8 0 -27 -6 -43 -14 -16
-8 -105 -48 -199 -89 -93 -41 -205 -91 -248 -111 -43 -20 -82 -36 -85 -36 -4
0 -24 -9 -44 -19 -19 -11 -39 -17 -42 -14 -3 4 -6 1 -6 -5 0 -7 -6 -12 -14
-12 -8 0 -53 -18 -100 -40 -47 -22 -89 -40 -94 -40 -17 0 -149 -85 -201 -129
-55 -47 -123 -130 -157 -191 -10 -19 -23 -38 -27 -41 -5 -3 -8 -9 -8 -13 1 -3
-6 -23 -14 -43 -46 -110 -60 -177 -59 -293 0 -63 3 -137 7 -165 10 -73 19
-144 32 -265 5 -45 15 -134 20 -170 3 -19 7 -60 10 -90 3 -30 7 -64 9 -76 2
-11 7 -47 10 -80 6 -56 12 -111 21 -180 3 -17 7 -57 10 -90 3 -32 8 -70 10
-84 6 -32 13 -89 20 -160 3 -30 7 -66 9 -80 3 -14 7 -50 10 -80 6 -61 15 -135
22 -195 3 -22 7 -58 9 -80 17 -181 45 -236 128 -249 62 -10 149 44 185 116 23
46 42 122 41 160 0 13 2 91 5 174 10 278 19 538 31 914 11 348 13 380 25 449
37 223 166 410 375 546 50 32 113 73 140 91 28 17 118 75 200 128 83 52 155
99 160 103 6 5 33 22 60 37 28 16 52 32 55 36 3 4 16 13 30 20 14 7 65 39 113
72 48 32 92 58 97 58 6 0 10 3 10 8 0 4 10 12 23 18 24 12 224 140 300 193 59
40 103 99 121 161 34 113 -24 211 -123 210 -14 0 -98 -32 -186 -70z"/>
<path d="M3925 6110 c-25 -10 -58 -47 -72 -80 -25 -59 9 -173 69 -233 36 -35
103 -87 113 -87 3 0 21 -11 39 -25 18 -14 38 -25 44 -25 6 0 12 -3 14 -8 3 -7
195 -132 204 -132 3 0 10 -5 17 -11 23 -20 179 -119 188 -119 5 0 9 -4 9 -10
0 -5 4 -10 10 -10 5 0 42 -22 82 -48 40 -27 107 -70 148 -96 133 -84 245 -156
260 -166 8 -6 58 -38 110 -72 181 -117 291 -253 353 -438 35 -103 40 -150 52
-565 2 -82 7 -217 10 -300 3 -82 8 -217 10 -300 17 -527 18 -533 34 -590 35
-123 166 -203 255 -156 36 20 63 81 72 164 3 29 7 68 10 87 3 19 7 53 9 74 2
22 6 62 10 90 3 28 8 69 11 91 2 22 7 56 9 75 6 42 12 92 20 178 4 35 8 73 11
85 2 12 6 49 10 82 3 33 8 71 10 85 1 14 5 45 8 70 9 77 19 164 21 180 2 8 5
42 9 75 3 33 9 83 12 110 4 28 8 61 9 75 1 14 5 48 9 75 4 28 9 70 11 95 6 56
16 137 21 170 10 59 12 251 2 291 -5 24 -12 55 -14 69 -3 14 -9 29 -15 35 -5
5 -9 15 -9 22 0 21 -50 124 -88 182 -48 72 -166 191 -212 215 -8 4 -24 12 -35
19 -40 25 -70 41 -80 43 -9 2 -455 198 -510 224 -11 5 -60 27 -110 49 -49 21
-116 50 -147 65 -31 14 -59 26 -62 26 -3 0 -38 15 -78 34 -40 19 -203 91 -363
161 -159 70 -303 133 -320 141 -105 46 -137 52 -180 34z"/>
<path d="M2983 4040 c-18 -4 -33 -5 -33 -3 0 3 -6 1 -12 -4 -7 -5 -33 -16 -58
-23 -167 -52 -319 -216 -371 -400 -19 -68 -19 -70 -22 -140 -8 -179 73 -376
197 -479 10 -9 27 -23 36 -31 27 -24 52 -39 105 -64 40 -18 90 -39 90 -37 0 0
25 -5 55 -12 290 -67 604 122 690 415 34 118 34 260 -1 367 -80 247 -316 420
-572 418 -40 0 -87 -3 -104 -7z"/>
<path d="M1225 1535 c-76 -29 -127 -106 -111 -169 6 -26 60 -86 109 -121 16
-11 88 -65 161 -120 73 -55 145 -109 160 -120 15 -11 60 -45 100 -75 81 -61
71 -54 286 -215 85 -64 170 -128 189 -143 18 -15 41 -31 50 -36 9 -5 18 -12
21 -16 3 -3 79 -62 170 -130 91 -68 167 -127 168 -132 2 -4 10 -8 17 -8 7 0
15 -4 17 -8 5 -14 130 -98 185 -126 93 -47 197 -70 318 -70 61 -1 130 3 155 7
25 5 54 10 65 12 40 6 141 49 190 80 42 27 173 123 265 194 14 10 50 37 80 60
30 22 60 44 65 48 6 5 62 47 125 93 63 46 117 87 120 90 16 17 132 100 139
100 5 0 11 4 13 8 2 5 49 43 105 84 56 42 108 81 115 87 27 23 360 271 364
271 2 0 14 9 26 19 13 10 48 39 78 63 67 53 93 98 86 152 -8 66 -84 125 -170
131 -62 5 -122 -12 -211 -57 -44 -23 -95 -49 -112 -57 -18 -8 -33 -19 -33 -23
0 -4 -8 -8 -18 -8 -10 0 -29 -8 -42 -17 -14 -10 -50 -31 -80 -46 -78 -41 -236
-125 -295 -157 -27 -15 -99 -53 -160 -85 -60 -32 -123 -65 -140 -75 -16 -9
-79 -43 -140 -75 -60 -32 -141 -75 -180 -96 -180 -97 -371 -126 -560 -84 -16
4 -35 8 -42 9 -7 1 -16 5 -19 9 -4 4 -13 7 -20 7 -14 0 -120 51 -249 120 -44
23 -118 63 -165 87 -47 25 -107 58 -135 73 -27 15 -90 49 -140 75 -49 26 -128
68 -175 93 -47 24 -107 57 -135 72 -207 113 -359 193 -401 211 -61 28 -155 34
-209 14z"/>
</g>
</svg>
